<svg width="149" height="33" viewBox="0 0 149 33" fill="none" xmlns="http://www.w3.org/2000/svg"><path fill-rule="evenodd" clip-rule="evenodd" d="M133.805 14.9357C117.595 26.7152 94.0999 33 73.8711 33C45.5072 33 19.9724 22.657 0.654278 5.45466C-0.863481 4.10193 0.496426 2.2584 2.31775 3.31184C23.1657 15.2709 48.9434 22.4655 75.571 22.4655C93.5292 22.4655 113.284 18.8024 131.449 11.2008C134.193 10.0515 136.488 12.9725 133.805 14.9357Z" fill="white"/><path fill-rule="evenodd" clip-rule="evenodd" d="M141.717 7.22318C139.709 4.6082 128.391 5.98766 123.311 6.59942C121.763 6.79135 121.527 5.42388 122.921 4.44026C131.935 -2.00122 146.726 -0.141939 148.451 2.01721C150.176 4.18836 148.002 19.2425 139.532 26.4276C138.232 27.5312 136.991 26.9434 137.57 25.48C139.472 20.6579 143.737 9.85015 141.717 7.22318Z" fill="white"/></svg>