<svg width="42" height="44" viewBox="0 0 42 44" fill="none" xmlns="http://www.w3.org/2000/svg"><path fill-rule="evenodd" clip-rule="evenodd" d="M34.3021 35.62C34.46 28.2886 31.2592 21.0918 26.7831 16.6158C20.5069 10.3396 11.5687 7.97748 1.8255 9.17156C1.05963 9.26576 0.77448 10.1527 1.51238 10.2208C9.92727 11.0321 17.9183 14.4489 23.8103 20.3408C27.7839 24.3145 30.9907 29.8503 32.5935 36.2862C32.8353 37.2587 34.2717 36.8379 34.3021 35.62Z" fill="white"/><path fill-rule="evenodd" clip-rule="evenodd" d="M33.6005 39.8225C32.3248 40.2094 30.259 37.2665 29.3294 35.9479C29.0479 35.5444 28.5609 35.9268 28.5567 36.548C28.5035 40.5904 32.3676 43.2723 33.4356 42.9675C34.5075 42.659 38.8122 37.3923 39.222 33.2337C39.2853 32.5953 38.824 32.5077 38.4868 33.101C37.3747 35.0549 34.8827 39.4344 33.6005 39.8225Z" fill="white"/></svg>