<svg width="36" height="63" viewBox="0 0 36 63" fill="none" xmlns="http://www.w3.org/2000/svg"><path fill-rule="evenodd" clip-rule="evenodd" d="M11.8187 54.7007C21.1147 50.0282 27.372 41.6615 29.1398 33.6584C31.6186 22.4368 26.9317 10.8062 17.1131 0.621552C16.3409 -0.178799 14.9889 0.0868222 15.5344 0.963048C21.7119 10.9782 24.2717 22.2397 21.9446 32.7744C20.3752 39.8792 16.1984 47.1537 9.52618 53.2169C8.51763 54.1327 10.2709 55.4723 11.8187 54.7007Z" fill="white"/><path fill-rule="evenodd" clip-rule="evenodd" d="M5.96789 56.6912C4.39423 55.5103 6.30608 51.2363 7.15926 49.3169C7.4229 48.7329 6.52884 48.4374 5.74905 48.8436C0.652498 51.4581 0.603518 57.5848 1.89705 58.5862C3.19862 59.5894 13.4584 60.9538 19.005 58.6642C19.8567 58.3131 19.572 57.7355 18.5425 57.7483C15.1507 57.7883 7.54854 57.8787 5.96789 56.6912Z" fill="white"/></svg>