<svg width="103" height="104" viewBox="0 0 103 104" fill="none" xmlns="http://www.w3.org/2000/svg"><circle cx="51.5" cy="52.3638" r="50.5" fill="#343434" stroke="white" stroke-width="2"/><g clip-path="url(#clip0_406_475)"><path d="M27.8157 63.057C27.2468 63.6251 26.6109 64.2432 25.9583 64.8614C25.724 65.0786 25.473 65.3459 25.1886 65.4629C24.7702 65.63 24.285 65.5798 24.0842 65.1287C23.9503 64.828 24.0005 64.427 24.0674 64.0929C24.1176 63.8924 24.3519 63.7253 24.5192 63.5582C25.289 62.7897 26.0587 62.0044 26.8284 61.2526C27.8324 60.2836 28.0332 60.2836 29.054 61.1858C29.2715 61.3695 29.4723 61.5533 29.7902 61.8374C30.058 61.5366 30.309 61.3027 30.5097 61.0187C31.7982 59.2477 33.2373 57.6271 35.0612 56.374C37.5879 54.6364 40.3656 53.9848 43.4278 54.2856C45.7705 54.5195 48.0127 54.9204 50.1044 56.09C50.5562 56.3406 51.2088 56.3406 51.761 56.3573C54.8064 56.374 57.8352 56.4074 60.8806 56.3406C62.6209 56.3072 64.0599 56.7583 65.1476 58.2954C65.5325 58.1283 65.9341 57.9946 66.2855 57.7941C68.1763 56.8084 70.0504 55.7725 71.9413 54.8035C73.7318 53.8846 75.5557 54.0684 76.8609 55.2379C78.986 57.1592 78.7517 60.2836 76.292 61.9209C74.5182 63.1071 72.6943 64.2098 70.8871 65.3459C67.8751 67.2339 64.8297 69.0717 61.8511 71.0098C59.793 72.3464 57.6176 72.998 55.1411 72.9312C51.8614 72.8309 48.5984 72.9144 45.3187 72.8977C44.1808 72.8977 43.1768 73.1818 42.2063 73.8835C42.2732 74.1341 42.3067 74.3513 42.4071 74.5518C42.6748 75.1031 42.541 75.5542 42.1394 75.9719C41.2023 76.9075 40.2652 77.8432 39.3114 78.7788C39.1776 78.9124 39.027 79.0628 38.8596 79.1129C38.4413 79.2299 37.9393 79.2633 37.7385 78.7955C37.6047 78.4948 37.6047 78.0604 37.7218 77.7596C37.8557 77.4255 38.1903 77.1749 38.458 76.9075C39.0102 76.3395 39.5792 75.7714 40.0812 75.2535C35.9983 71.1769 31.9655 67.1838 27.8157 63.057ZM40.5664 72.5135C42.8756 71.11 43.4278 70.9597 46.1386 70.9597C49.3681 70.9597 52.5977 70.943 55.8104 70.9597C57.2662 70.9597 58.6384 70.6255 59.8766 69.857C64.9468 66.6992 70.0002 63.5248 75.0537 60.3504C76.2585 59.5818 76.6266 58.3789 76.041 57.3096C75.4553 56.2403 74.1836 55.8561 72.962 56.4742C70.7198 57.6103 68.511 58.8133 66.3189 60.0162C66.0345 60.1666 65.7667 60.5342 65.6663 60.8516C64.9133 63.4747 63.5747 64.5607 60.8974 64.5774C56.8646 64.5941 52.8319 64.5774 48.7992 64.5774C48.4311 64.5774 48.0295 64.5607 47.6781 64.4604C47.2263 64.3435 46.9585 63.9926 46.992 63.5081C47.0255 63.0236 47.3099 62.7229 47.8119 62.656C48.1801 62.6059 48.5649 62.6226 48.9498 62.6226C52.7985 62.6226 56.6304 62.6393 60.479 62.6059C61.0814 62.6059 61.7173 62.5391 62.2862 62.3553C63.2902 62.0378 63.7922 61.1523 63.6918 60.1499C63.5747 59.1641 62.8551 58.429 61.8344 58.3121C61.4663 58.2619 61.0814 58.2787 60.6966 58.2787C57.6678 58.2787 54.6224 58.3121 51.5937 58.2619C50.8072 58.2452 49.9203 58.1784 49.251 57.8108C47.5442 56.8919 45.7203 56.5578 43.8294 56.2236C38.8429 55.3548 33.9401 58.4958 31.5472 63.341C34.5425 66.4152 37.521 69.4393 40.5664 72.5135Z" fill="white"/><path d="M42.7409 37.0772C42.2389 36.5593 41.7202 36.0747 41.2516 35.5568C40.2142 34.4374 40.2142 33.4349 41.2684 32.3155C42.1552 31.3799 43.0421 30.4777 43.9791 29.5922C44.9999 28.6399 45.9537 28.6232 47.0079 29.5254C47.5768 30.0266 48.0955 30.578 48.631 31.1126C50.137 30.4944 51.576 29.893 53.149 29.2414C53.149 28.5898 53.1155 27.888 53.149 27.203C53.2159 25.5991 53.9354 24.8974 55.5586 24.8807C56.7968 24.864 58.0351 24.864 59.2566 24.8807C60.7124 24.9141 61.4319 25.5991 61.5323 27.0527C61.5825 27.7544 61.5323 28.4728 61.5323 29.2247C63.0551 29.8595 64.5276 30.461 66.0838 31.1126C66.569 30.6448 67.0543 30.1269 67.573 29.659C68.7444 28.5731 69.648 28.5731 70.7858 29.6758C71.7062 30.5613 72.6098 31.4635 73.4966 32.3991C74.5173 33.4684 74.5173 34.4207 73.5133 35.5067C73.0448 36.0246 72.5261 36.5258 72.0241 37.0438C72.6432 38.5307 73.2289 39.9676 73.8815 41.5548C74.5006 41.5715 75.1867 41.6049 75.8895 41.6216C77.613 41.6718 78.2656 42.3401 78.2991 44.0776C78.3158 45.2639 78.3325 46.4501 78.2991 47.6363C78.2656 49.1901 77.5795 49.8752 76.0233 49.9253C75.3707 49.942 74.7014 49.9253 73.9317 49.9253C73.7476 50.3764 73.5636 50.7941 73.3962 51.2118C73.1787 51.7631 72.8106 52.0973 72.1914 51.9302C71.5723 51.7631 71.4384 51.2619 71.5388 50.6938C71.9572 48.5386 72.593 47.9371 74.4839 47.9872C75.0361 48.0039 75.605 47.9872 76.2576 47.9872C76.2576 46.4835 76.2576 45.1302 76.2576 43.6265C75.5381 43.6098 74.852 43.5764 74.1492 43.5764C72.7604 43.5597 72.2918 43.1921 71.8233 41.9558C71.3548 40.7194 70.836 39.4998 70.2838 38.2968C69.7818 37.1774 69.8488 36.5258 70.6854 35.5735C70.9364 35.2895 71.2042 35.0222 71.4719 34.7548C71.6894 34.5209 71.907 34.287 72.2249 33.9362C71.7062 33.4015 71.2209 32.9003 70.7189 32.3991C70.2504 31.9313 69.7818 31.4802 69.2129 30.9121C68.6942 31.4133 68.2256 31.8477 67.7571 32.2988C66.7029 33.2846 65.9499 33.3681 64.6782 32.7666C63.5571 32.2487 62.4192 31.7809 61.2646 31.3465C59.9594 30.862 59.6247 30.4443 59.608 29.0576C59.5913 28.406 59.608 27.7377 59.608 26.9357C58.1355 26.7018 56.7299 26.8689 55.157 26.8355C55.1235 27.604 55.1068 28.289 55.09 28.974C55.0566 30.5613 54.7888 30.862 53.2494 31.4133C52.1784 31.7976 51.1242 32.2487 50.1035 32.7332C48.7816 33.3681 47.9617 33.3013 46.9075 32.2654C46.4724 31.831 46.1043 31.3298 45.6525 30.8119C44.5648 31.948 43.6277 32.9337 42.5736 34.0364C42.925 34.404 43.3433 34.8885 43.7951 35.3396C44.8995 36.4757 44.9664 37.1106 44.2971 38.514C43.7951 39.5833 43.36 40.686 42.9417 41.7887C42.4062 43.2089 41.9712 43.5597 40.4317 43.5764C39.8293 43.5764 39.2269 43.5764 38.4906 43.5764C38.4739 44.4118 38.4404 45.1135 38.4237 45.8152C38.407 46.4668 38.4237 47.1184 38.4237 47.9371C39.1934 47.9538 39.8293 47.9872 40.4819 48.0039C42.2054 48.054 43.4437 49.3739 43.2429 51.0614C43.2094 51.3955 42.7911 51.8466 42.4732 51.9135C42.172 51.9803 41.67 51.6963 41.4524 51.4122C41.168 51.0614 41.0843 50.5602 40.8668 49.9921C40.1807 49.9754 39.4946 49.9086 38.7918 49.9253C37.1854 49.9587 36.3655 49.0398 36.4492 47.5862C36.5328 46.3165 36.4492 45.03 36.4826 43.7435C36.5161 42.3902 37.1185 41.772 38.4572 41.6383C39.2436 41.5715 40.2309 41.772 40.7831 41.371C41.3353 40.97 41.419 39.9676 41.7369 39.2325C42.0548 38.5307 42.3895 37.8457 42.7409 37.0772Z" fill="white"/><path d="M49.066 45.7483C49.066 41.137 52.7641 37.3945 57.3825 37.428C62.2518 37.4614 65.7324 41.4211 65.6822 45.765C65.632 50.4264 62.0176 54.0687 57.3825 54.0687C52.6302 54.0854 48.9322 50.0588 49.066 45.7483ZM63.6909 45.882C63.7746 42.4235 61.0136 39.4329 57.5163 39.3994C53.8685 39.366 51.1409 42.1395 51.0238 45.5812C50.9067 49.1065 53.7848 52.1473 57.2821 52.1306C60.9968 52.0972 63.7076 49.2068 63.6909 45.882Z" fill="white"/></g><defs><clipPath id="clip0_406_475"><rect width="54.3162" height="54.3162" fill="white" transform="translate(24 24.8638)"/></clipPath></defs></svg>