<svg width="103" height="104" viewBox="0 0 103 104" fill="none" xmlns="http://www.w3.org/2000/svg"><circle cx="51.5" cy="52.3638" r="50.5" fill="#343434" stroke="white" stroke-width="2"/><g clip-path="url(#clip0_406_466)"><path d="M74.4843 43.6252C74.4843 46.2442 74.431 48.8632 74.4843 51.5086C74.6707 57.8048 72.4863 63.2809 68.4904 68.0427C64.1749 73.2278 58.7404 76.9314 52.5868 79.6562C51.7077 80.053 50.9085 80.0795 50.0027 79.6827C42.9966 76.561 36.8696 72.3019 32.4208 65.9528C29.1708 61.3232 27.8122 56.1646 27.9987 50.4769C28.1852 44.9479 28.1319 39.366 27.972 33.837C27.9188 31.8529 28.5048 30.6625 30.2897 29.7101C37.3224 25.9007 44.7282 23.5462 52.7999 23.8901C60.0191 24.2076 66.679 26.4827 72.8859 30.1334C74.058 30.8212 74.5376 31.6942 74.5109 33.0434C74.431 36.5618 74.4843 40.1067 74.4843 43.6252ZM71.3408 44.4188C71.3408 41.112 71.3142 37.8317 71.3408 34.5248C71.3408 33.5725 71.2343 32.8053 70.2486 32.2762C64.681 29.2604 58.7937 27.2499 52.4269 27.0118C45.5273 26.7472 39.1872 28.7578 33.1134 31.8529C31.7282 32.5672 31.1688 33.3873 31.1954 34.9746C31.302 40.4506 31.3552 45.9267 31.1954 51.4028C31.0356 57.4609 33.2466 62.5137 37.1892 66.9316C40.679 70.8733 44.9679 73.7569 49.6564 76.1378C50.7486 76.6933 51.7343 76.7198 52.8798 76.1378C57.7548 73.651 62.2302 70.6088 65.7999 66.429C69.4228 62.1698 71.554 57.3286 71.3675 51.6144C71.2609 49.2071 71.3408 46.7997 71.3408 44.4188Z" fill="white"/><path d="M47.5268 56.5351C51.1764 52.9902 54.3731 49.895 57.5432 46.8263C58.3424 46.0326 59.1149 45.1861 59.9674 44.4453C60.9264 43.5988 61.6723 43.5988 62.3649 44.2602C63.0842 44.948 63.1108 45.6623 62.1785 46.5882C57.8895 50.9002 53.574 55.2123 49.2318 59.4715C48.2727 60.4239 47.66 60.4239 46.701 59.498C44.5166 57.4081 42.3855 55.2917 40.3076 53.1489C39.4551 52.2759 39.4818 51.6674 40.1211 51.0061C40.8137 50.2918 41.6662 50.2389 42.5187 51.0061C43.7973 52.1701 45.0227 53.4134 46.1949 54.6568C46.6744 55.1859 47.0473 55.8737 47.5268 56.5351Z" fill="white"/></g><defs><clipPath id="clip0_406_466"><rect width="46.5122" height="56.11" fill="white" transform="translate(28 23.8638)"/></clipPath></defs></svg>