<svg width="103" height="104" viewBox="0 0 103 104" fill="none" xmlns="http://www.w3.org/2000/svg"><circle cx="51.5" cy="52.3638" r="50.5" fill="#343434" stroke="white" stroke-width="2"/><g clip-path="url(#clip0_406_469)"><path d="M68.0006 74.8897C69.2492 74.8897 70.2183 74.8897 71.3738 74.8897C71.3738 68.3596 71.3738 61.9065 71.3738 55.3763C72.0447 55.3763 72.492 55.3763 73.1256 55.3763C73.1256 61.868 73.1256 68.2825 73.1256 74.8319C74.2252 74.8319 75.1756 74.8319 76.2938 74.8319C76.3497 73.9844 76.4056 73.1175 76.4615 72.1351C77.002 72.0966 77.4679 72.0773 78.0456 72.0581C78.0456 74.5623 78.0456 76.9701 78.0456 79.5514C77.5797 79.5706 77.0765 79.6092 76.4802 79.6477C76.4243 78.646 76.3684 77.8177 76.2938 76.816C59.8565 76.816 43.4564 76.816 26.7955 76.816C26.7768 74.5815 26.7582 72.5397 26.7582 70.4785C26.7582 68.3981 26.7582 66.2984 26.7582 64.218C26.7582 62.1376 26.7582 60.038 26.7582 57.9576C26.7582 55.8772 26.7582 53.7775 26.7582 51.6971C26.7582 49.6745 26.7582 47.6326 26.7582 45.61C26.7582 43.5296 26.7582 41.4299 26.7582 39.3495C26.7582 37.2691 26.7582 35.1695 26.7582 33.0891C26.7582 31.0087 26.7582 28.9283 26.7582 26.7323C25.7705 26.6167 24.9318 26.5589 24 26.4819C24 25.9232 24 25.4417 24 24.8638C26.3668 24.8638 28.6964 24.8638 31.1564 24.8638C31.1937 25.3646 31.2309 25.8269 31.2868 26.4626C30.3364 26.5396 29.4791 26.5974 28.5473 26.6745C28.5473 42.7398 28.5473 58.7281 28.5473 74.8512C29.5909 74.8512 30.5787 74.8512 31.7155 74.8512C31.7155 69.7658 31.7155 64.8152 31.7155 59.7105C32.2932 59.6912 32.7405 59.6527 33.3741 59.6335C33.3741 64.7574 33.3741 69.7465 33.3741 74.8705C34.5109 74.8705 35.4614 74.8705 36.6355 74.8705C36.6355 71.249 36.6355 67.6661 36.6355 64.0254C37.2505 63.9869 37.6791 63.9676 38.3128 63.9291C38.3128 67.5891 38.3128 71.1527 38.3128 74.8705C39.4682 74.8705 40.4187 74.8705 41.5742 74.8705C41.5742 71.5958 41.5742 68.3596 41.5742 65.0078C42.2264 65.0078 42.6737 65.0078 43.2887 65.0078C43.2887 68.2633 43.2887 71.4417 43.2887 74.6201C44.4069 75.2365 45.4133 75.0053 46.5501 74.8127C46.5501 71.5765 46.5501 68.3788 46.5501 65.0078C47.1837 64.9693 47.6683 64.95 48.3392 64.9115C48.3392 68.3018 48.3392 71.4995 48.3392 74.8512C49.4387 74.8512 50.3705 74.8512 51.5446 74.8512C51.5446 71.2876 51.5446 67.7046 51.5446 64.0447C52.2342 64.0447 52.6815 64.0447 53.2965 64.0447C53.2965 67.6276 53.2965 71.1527 53.2965 74.8512C54.4333 74.8512 55.421 74.8512 56.5578 74.8512C56.5578 69.8236 56.5578 64.873 56.5578 59.7876C57.1356 59.7298 57.5828 59.6912 58.2351 59.6335C58.2351 64.7767 58.2351 69.7658 58.2351 74.8897C59.4092 74.8897 60.3969 74.8897 61.5151 74.8897C61.5151 68.3981 61.5151 62.0413 61.5151 55.5304C62.0556 55.4341 62.5029 55.3571 63.1738 55.2415C63.1738 61.8487 63.1738 68.3018 63.1738 74.8897C64.2733 74.8897 65.1679 74.8897 66.2115 74.8897C66.2115 68.3981 66.2115 62.0028 66.2115 55.4534C66.8638 55.4534 67.367 55.4534 68.0192 55.4534C68.0006 61.9065 68.0006 68.3018 68.0006 74.8897Z" fill="white"/><path d="M58.3095 47.6327C59.3718 47.6327 60.3222 47.6327 61.4218 47.6327C61.4963 46.9007 61.5709 46.188 61.6454 45.3982C61.9622 45.3404 62.2604 45.2441 62.5772 45.2441C65.1491 45.2249 67.7022 45.2056 70.2741 45.2441C72.2123 45.2634 73.0509 46.1302 73.1627 48.1143C73.1814 48.5574 73.2186 49.0197 73.1814 49.4627C73.0509 50.9845 72.1377 51.9862 70.6468 52.044C68.1309 52.121 65.6336 52.0825 63.1177 52.0825C62.689 52.0825 62.2604 52.0825 61.7013 52.0825C61.6268 51.2349 61.5522 50.4837 61.459 49.6168C60.434 49.6168 59.4836 49.6168 58.3468 49.6168C57.7504 54.3748 55.5886 58.1888 51.4699 60.6352C48.6558 62.3111 45.5808 62.7156 42.4312 62.0992C35.9458 60.8086 31.5103 54.8756 31.7898 47.8832C32.0508 41.353 37.1012 35.5741 43.9035 34.9962C47.5563 34.688 50.799 35.7667 53.6131 38.2131C56.4086 40.6595 57.8249 43.8765 58.3095 47.6327ZM44.9472 36.7106C38.6481 36.7492 33.4485 42.0657 33.4112 48.5188C33.3926 55.1838 38.6108 60.5775 45.059 60.5582C51.4326 60.5197 56.6322 55.1068 56.5763 48.5766C56.539 41.9887 51.3022 36.6721 44.9472 36.7106ZM63.2854 50.3296C65.6895 50.3296 67.9072 50.3681 70.125 50.3103C71.2432 50.291 71.4668 49.9058 71.4295 48.4996C71.4109 47.2089 71.2245 46.9778 70.0504 46.9585C68.0936 46.92 66.1368 46.9393 64.18 46.9585C63.8818 46.9585 63.5836 47.0934 63.2854 47.1704C63.2854 48.1914 63.2854 49.1352 63.2854 50.3296Z" fill="white"/><path d="M44.0717 42.4508C44.1462 41.9692 44.2208 41.4876 44.2953 40.9482C44.7799 40.9482 45.2085 40.9482 45.7303 40.9482C45.7117 42.0077 46.0844 42.7012 47.0535 43.1635C48.0226 43.6258 48.5631 44.5697 48.5444 45.8025C47.7244 46.0722 47.1281 46.0337 46.6063 45.1668C46.0658 44.2615 45.1712 44.0688 44.314 44.3963C43.6058 44.666 43.1026 45.1476 43.1212 46.0144C43.1399 46.8812 43.6058 47.3628 44.3326 47.6132C44.6867 47.7288 45.0781 47.7095 45.4508 47.7866C47.2026 48.1141 48.3022 49.1735 48.5631 50.7916C48.8054 52.2749 48.1344 53.4884 46.5131 54.4516C46.3267 54.5672 46.1403 54.6827 45.9167 54.8176C45.8608 55.2992 45.7862 55.7807 45.7117 56.3586C45.2458 56.3779 44.8358 56.4164 44.314 56.4357C44.2022 55.8578 44.109 55.3377 44.0158 54.7791C42.7299 54.1049 41.4999 53.3536 41.3881 51.5429C42.2081 51.2154 42.8231 51.1576 43.3821 52.1208C43.9412 53.0647 44.9103 53.1995 45.8235 52.795C46.4944 52.4868 46.8485 51.9667 46.8485 51.2154C46.8485 50.4449 46.4199 49.9441 45.749 49.7129C45.2831 49.5588 44.7985 49.501 44.314 49.4047C42.6926 49.0772 41.5371 47.9792 41.3508 46.4575C41.1644 44.8972 41.8726 43.7414 43.1585 42.9516C43.4567 42.7975 43.7549 42.6241 44.0717 42.4508Z" fill="white"/></g><defs><clipPath id="clip0_406_469"><rect width="54.0643" height="54.7646" fill="white" transform="translate(24 24.8638)"/></clipPath></defs></svg>