<svg width="104" height="104" viewBox="0 0 104 104" fill="none" xmlns="http://www.w3.org/2000/svg"><circle cx="52" cy="52.3638" r="50.5" fill="#343434" stroke="white" stroke-width="2"/><g clip-path="url(#clip0_406_472)"><path d="M63.6892 33.7595C54.2728 33.7595 44.9852 33.7595 35.5205 33.7595C35.4883 34.2043 35.44 34.6333 35.44 35.0622C35.44 38.3032 35.44 41.5441 35.44 44.785C35.44 45.1504 35.4561 45.5158 35.3917 45.8653C35.2951 46.3578 34.9732 46.6597 34.4259 46.6279C33.9591 46.5961 33.6694 46.3261 33.5889 45.8812C33.5406 45.5794 33.5567 45.2457 33.5406 44.9439C33.5406 40.3526 33.6211 35.7612 33.5084 31.1699C33.4601 27.7542 36.2609 25.8319 38.9651 25.8637C46.128 25.959 53.2909 25.8954 60.4538 25.8954C62.6751 25.8954 64.3331 26.801 65.2667 28.8186C65.5081 29.327 65.6369 29.9466 65.653 30.5027C65.7013 32.1231 65.6852 33.7436 65.6852 35.3641C65.6852 35.5388 65.6691 35.7295 65.653 35.9042C65.6047 36.3808 65.315 36.6191 64.8482 36.6668C64.3653 36.7145 64.0272 36.4603 63.9307 36.0313C63.818 35.5547 63.8341 35.0463 63.8019 34.5697C63.7697 34.3473 63.7375 34.1249 63.6892 33.7595ZM63.6248 31.8054C64.3009 29.4065 62.4659 27.5795 60.2768 27.7383C60.148 27.7542 60.0031 27.7383 59.8583 27.7383C53.0495 27.7383 46.2568 27.7383 39.448 27.7383C39.0295 27.7383 38.6271 27.7066 38.2247 27.7701C36.1804 28.0243 35.0376 29.8354 35.6814 31.8054C44.9852 31.8054 54.2728 31.8054 63.6248 31.8054Z" fill="white"/><path d="M48.0433 45.5638C46.7717 46.7077 45.4035 47.0572 43.7938 46.1675C43.2144 46.5647 42.6027 46.9619 42.0071 47.3591C40.1721 48.6141 38.3371 49.8851 36.4861 51.1084C35.7939 51.5691 35.4237 52.0298 35.3915 52.9354C35.3432 54.4764 34.136 55.5567 32.6551 55.6203C31.1099 55.6997 29.9026 54.7941 29.5646 53.3167C29.1139 51.3943 30.8362 49.5673 32.8161 49.8533C33.299 49.9169 33.7819 50.1075 34.3613 50.2664C36.5182 48.8048 38.7235 47.2955 40.9448 45.7862C41.1701 45.6274 41.3794 45.4526 41.6208 45.3255C42.2969 44.9442 42.6671 44.5153 42.6671 43.6256C42.651 42.164 43.7294 41.0996 45.1781 40.8613C46.498 40.6389 47.8662 41.3697 48.3008 42.7201C48.5745 43.578 49.0252 43.9434 49.8461 44.1817C51.4235 44.6424 52.9688 45.1825 54.514 45.7227C54.9808 45.8816 55.3511 45.8975 55.7696 45.5479C56.5905 44.8489 57.5402 44.6265 58.5864 44.9919C59.0854 45.1667 59.4556 45.0713 59.842 44.7377C62.3852 42.6089 64.9123 40.4641 67.4877 38.3829C68.035 37.9381 67.8902 37.4615 67.8741 36.9372C67.8097 35.428 68.7916 34.2364 70.2885 33.9505C71.7533 33.6645 73.1215 34.4588 73.6366 35.8728C74.3931 37.9699 72.6064 40.0511 70.2885 39.6062C69.3388 39.4156 68.7755 39.7015 68.1316 40.2576C65.9908 42.0846 63.8178 43.8798 61.6447 45.6592C60.9848 46.1993 60.5502 46.6918 60.6307 47.6768C60.7594 49.2019 59.681 50.3458 58.184 50.6159C56.8158 50.8701 55.4315 50.1075 54.9647 48.7094C54.7072 47.931 54.2887 47.5656 53.5 47.3432C51.665 46.8348 49.8783 46.1834 48.0433 45.5638ZM58.7474 47.7721C58.7635 47.2637 58.2806 46.7236 57.7494 46.6918C57.2504 46.66 56.671 47.1525 56.6227 47.645C56.5744 48.1693 57.1378 48.773 57.7011 48.7889C58.2162 48.8207 58.7313 48.3123 58.7474 47.7721ZM33.5243 52.7447C33.5243 52.2522 32.977 51.6962 32.478 51.6803C31.9791 51.6644 31.4157 52.1887 31.3996 52.713C31.3674 53.2055 31.8986 53.7456 32.4459 53.7615C32.9931 53.7615 33.5243 53.269 33.5243 52.7447ZM46.6429 43.7686C46.659 43.2443 46.1278 42.7201 45.5966 42.7201C45.0493 42.7201 44.5343 43.2126 44.5343 43.7527C44.5182 44.277 45.0332 44.7854 45.5805 44.8013C46.0956 44.8013 46.6268 44.2929 46.6429 43.7686ZM71.8821 36.7625C71.8499 36.2541 71.3026 35.7457 70.7875 35.7457C70.2724 35.7457 69.7412 36.2858 69.7573 36.8101C69.7734 37.3344 70.3046 37.811 70.8519 37.811C71.3992 37.7951 71.9143 37.2867 71.8821 36.7625Z" fill="white"/><path d="M33.4919 71.5705C32.6066 71.5705 31.8822 71.5705 31.1579 71.5705C30.836 71.5705 30.4657 71.634 30.2243 71.4911C29.9346 71.3481 29.6287 71.0303 29.5483 70.7444C29.4195 70.3154 29.7253 69.95 30.1599 69.8229C30.4979 69.7276 30.8843 69.7276 31.2384 69.7276C43.4234 69.7276 55.6084 69.7276 67.8094 69.7276C68.0831 69.7276 68.3567 69.7117 68.6304 69.7435C69.3547 69.8229 69.7571 70.1883 69.6927 70.7126C69.6283 71.3163 69.2259 71.5546 68.6465 71.5705C68.1475 71.5864 67.6485 71.5705 67.1334 71.5705C66.731 71.5705 66.3286 71.5705 65.7652 71.5705C65.7169 72.0948 65.6686 72.5237 65.6364 72.9527C65.4755 75.574 63.4956 77.5122 60.8236 77.5281C53.3388 77.5599 45.8539 77.5599 38.3691 77.5281C35.7132 77.5122 33.7011 75.5581 33.5402 72.9527C33.5402 72.5555 33.5241 72.1583 33.4919 71.5705ZM63.6405 71.6817C61.2904 71.4116 36.518 71.5069 35.5522 71.777C35.2464 74.2872 36.4375 75.6693 38.9486 75.6852C46.0793 75.7011 53.1939 75.7011 60.3246 75.6852C62.8517 75.6852 64.0268 74.2395 63.6405 71.6817Z" fill="white"/><path d="M69.7252 55.1913C69.7252 58.7023 69.7252 62.2133 69.7252 65.7243C69.7252 66.0421 69.7252 66.3598 69.7091 66.6617C69.6769 67.2018 69.3711 67.4878 68.8399 67.5196C68.3087 67.5672 67.9385 67.2336 67.858 66.6299C67.8258 66.3598 67.8419 66.0897 67.8419 65.8197C67.8419 58.75 67.8419 51.6962 67.8419 44.6265C67.8419 44.3087 67.8258 43.991 67.858 43.6891C67.9385 43.1808 68.2604 42.8789 68.7916 42.8789C69.3389 42.8789 69.6286 43.2125 69.693 43.7209C69.7413 44.0704 69.7252 44.4358 69.7252 44.8012C69.7252 48.2646 69.7252 51.7279 69.7252 55.1913Z" fill="white"/><path d="M65.6685 56.6845C65.6685 59.6554 65.6685 62.6104 65.6685 65.5812C65.6685 65.9466 65.6686 66.2961 65.6525 66.6615C65.6203 67.1858 65.3627 67.5035 64.8154 67.5353C64.2843 67.5671 63.8979 67.2335 63.8014 66.6457C63.7692 66.3756 63.7853 66.1055 63.7853 65.8354C63.7853 59.7666 63.7853 53.6978 63.7853 47.629C63.7853 47.2795 63.8014 46.9141 63.8819 46.5645C64.0106 46.0721 64.3486 45.802 64.8959 45.8814C65.3788 45.945 65.6203 46.2468 65.6364 46.7075C65.6685 47.0729 65.6685 47.4224 65.6685 47.7878C65.6685 50.7587 65.6685 53.7137 65.6685 56.6845Z" fill="white"/><path d="M47.6401 57.6376C47.6401 54.9845 47.6401 52.3313 47.6401 49.6782C47.6401 49.281 47.6562 48.868 47.7528 48.4867C47.8655 48.0577 48.2196 47.8036 48.6864 47.8671C49.121 47.9306 49.4429 48.169 49.4751 48.6615C49.4912 48.9315 49.5073 49.2016 49.5073 49.4717C49.5073 54.9686 49.5073 60.4496 49.5073 65.9465C49.5073 66.2165 49.5073 66.4866 49.4751 66.7567C49.4268 67.2174 49.1693 67.5034 48.7025 67.551C48.1713 67.5987 47.8172 67.3286 47.7045 66.8202C47.624 66.4231 47.624 66.01 47.624 65.6128C47.624 62.9438 47.6401 60.2907 47.6401 57.6376Z" fill="white"/><path d="M43.6652 58.0826C43.6652 55.6042 43.6652 53.1259 43.6652 50.6475C43.6652 50.3298 43.6491 50.012 43.6813 49.7102C43.7295 49.2018 44.0193 48.8682 44.5666 48.8682C45.0977 48.8682 45.4036 49.1859 45.5162 49.6784C45.5806 49.9326 45.5484 50.2186 45.5484 50.4886C45.5484 55.6201 45.5484 60.7675 45.5484 65.899C45.5484 66.2167 45.5645 66.5345 45.4841 66.8363C45.3553 67.3129 45.0012 67.583 44.47 67.5353C43.9871 67.4877 43.7295 67.2017 43.6973 66.741C43.6652 66.3756 43.6652 66.0261 43.6652 65.6607C43.6652 63.1346 43.6652 60.6086 43.6652 58.0826Z" fill="white"/><path d="M53.5638 58.7497C53.5638 61.0851 53.5638 63.4363 53.5638 65.7717C53.5638 66.0418 53.5799 66.3119 53.5477 66.582C53.4833 67.2174 53.1292 67.5828 52.6302 67.5352C52.0507 67.4716 51.7288 67.138 51.6966 66.5661C51.6805 66.296 51.6805 66.0259 51.6805 65.7558C51.6805 61.0692 51.6805 56.3825 51.6805 51.6959C51.6805 51.2987 51.6644 50.8698 51.7771 50.4885C51.8897 50.0595 52.26 49.8371 52.7268 49.8848C53.1775 49.9324 53.4994 50.1548 53.5477 50.6473C53.5799 50.9651 53.5638 51.2828 53.5638 51.5847C53.5638 53.9836 53.5638 56.3666 53.5638 58.7497Z" fill="white"/><path d="M39.6087 59.8143C39.6087 57.7966 39.6087 55.7631 39.6087 53.7455C39.6087 53.4754 39.5926 53.2053 39.6087 52.9352C39.657 52.2521 40.0433 51.839 40.5745 51.8549C41.0896 51.8708 41.4437 52.2839 41.4759 52.9988C41.5081 54.1744 41.492 55.3342 41.492 56.5098C41.492 59.5283 41.492 62.5468 41.492 65.5495C41.492 65.8672 41.5081 66.185 41.492 66.4868C41.4437 67.2017 41.0896 67.5671 40.5262 67.5512C39.9789 67.5353 39.6409 67.1699 39.6248 66.4233C39.5926 64.215 39.6087 62.0226 39.6087 59.8143Z" fill="white"/><path d="M59.8097 59.6871C59.8097 57.6536 59.8097 55.636 59.8097 53.6024C59.8097 53.3324 59.7936 53.0623 59.8258 52.7922C59.9063 52.1408 60.2121 51.8072 60.7433 51.839C61.3549 51.8708 61.6286 52.2521 61.693 52.7922C61.7252 53.1099 61.7091 53.4277 61.7091 53.7295C61.7091 57.733 61.7091 61.7366 61.7091 65.756C61.7091 66.1214 61.7252 66.4868 61.6286 66.8204C61.4998 67.297 61.1457 67.583 60.5984 67.5035C60.1316 67.44 59.8741 67.154 59.8258 66.6933C59.7936 66.3755 59.8097 66.0578 59.8097 65.756C59.8097 63.7383 59.8097 61.7207 59.8097 59.6871Z" fill="white"/><path d="M57.637 60.2432C57.637 62.0066 57.637 63.7542 57.637 65.5176C57.637 65.7877 57.6531 66.0578 57.637 66.3279C57.5887 67.154 57.2829 67.5353 56.6712 67.5353C56.0757 67.5353 55.7698 67.1699 55.7698 66.2961C55.7538 62.2449 55.7698 58.1779 55.7698 54.1267C55.7698 53.9519 55.7698 53.7613 55.802 53.5865C55.8825 53.1258 56.1884 52.8716 56.6552 52.8557C57.1702 52.8398 57.5405 53.0781 57.6209 53.6024C57.6692 53.9043 57.6531 54.2379 57.6531 54.5397C57.637 56.4621 57.637 58.3526 57.637 60.2432Z" fill="white"/><path d="M37.4195 61.7527C37.4195 63.1507 37.4195 64.5488 37.4195 65.9309C37.4195 66.2487 37.4356 66.5664 37.3712 66.8683C37.2747 67.3449 36.9044 67.5832 36.4698 67.5037C36.164 67.4402 35.826 67.2019 35.6489 66.9318C35.5041 66.6935 35.5363 66.3281 35.5363 66.0104C35.5363 63.1348 35.5363 60.2434 35.5363 57.3679C35.5363 57.1454 35.5202 56.9071 35.5523 56.7006C35.665 56.1128 36.0513 55.795 36.5825 55.8586C37.1298 55.9221 37.3873 56.2399 37.4034 56.7642C37.4195 57.622 37.4034 58.4799 37.4195 59.322C37.4195 60.1322 37.4195 60.9424 37.4195 61.7527Z" fill="white"/><path d="M31.4798 62.6422C31.4798 61.5618 31.4637 60.4815 31.4798 59.4171C31.4798 59.0676 31.5281 58.7022 31.6408 58.3686C31.7856 57.9396 32.1881 57.7013 32.6066 57.8443C32.8963 57.9555 33.2182 58.2574 33.2987 58.5433C33.4275 59.004 33.4114 59.5124 33.4114 60.0049C33.4114 61.9749 33.3953 63.9449 33.3792 65.9308C33.3792 66.0261 33.3792 66.1055 33.3792 66.2008C33.347 67.1699 33.0573 67.5671 32.4295 67.5353C31.8178 67.5036 31.512 67.0905 31.4959 66.1373C31.4637 64.9775 31.4798 63.8178 31.4798 62.6422Z" fill="white"/></g><defs><clipPath id="clip0_406_472"><rect width="44.2974" height="51.6802" fill="white" transform="translate(29.5 25.8638)"/></clipPath></defs></svg>