<svg width="24" height="24" viewBox="0 0 24 24" fill="none" xmlns="http://www.w3.org/2000/svg"><path fill-rule="evenodd" clip-rule="evenodd" d="M15.6014 2C15.6925 3.14445 15.3165 4.27799 14.5532 5.1599C13.8128 6.04638 12.6909 6.55699 11.5092 6.54528C11.4341 5.43378 11.821 4.3391 12.5848 3.50237C13.3583 2.6543 14.4354 2.11788 15.6014 2ZM19.4601 8.58033C18.0732 9.41143 17.2198 10.8771 17.1988 12.4639C17.2008 14.2591 18.3037 15.8792 20 16.5785C19.6738 17.6115 19.182 18.5878 18.543 19.4711C17.6848 20.7224 16.785 21.945 15.3568 21.9676C14.6775 21.9829 14.219 21.7925 13.7413 21.5941C13.2429 21.3871 12.7236 21.1715 11.911 21.1715C11.0492 21.1715 10.5066 21.3941 9.98336 21.6087C9.53116 21.7942 9.09337 21.9738 8.47638 21.9988C7.11628 22.0479 6.07679 20.6632 5.18738 19.4235C3.4097 16.892 2.02549 12.2892 3.88123 9.15732C4.75267 7.63089 6.38206 6.66229 8.17324 6.60588C8.94464 6.5904 9.68486 6.88022 10.3338 7.13431C10.8301 7.32862 11.2731 7.50205 11.6358 7.50205C11.9546 7.50205 12.3852 7.33547 12.887 7.14134C13.6775 6.83554 14.6447 6.46136 15.6303 6.5622C17.1619 6.60891 18.5812 7.35682 19.4601 8.58033Z" fill="black"/></svg>